<?xml version="1.0" encoding="UTF-8" standalone="no"?>
<!-- Created with Inkscape (http://www.inkscape.org/) -->

<svg
   width="682.76654mm"
   height="552.00732mm"
   viewBox="0 0 682.76655 552.00732"
   version="1.1"
   id="svg8"
   xmlns="http://www.w3.org/2000/svg"
   xmlns:svg="http://www.w3.org/2000/svg"
   xmlns:rdf="http://www.w3.org/1999/02/22-rdf-syntax-ns#"
   xmlns:cc="http://creativecommons.org/ns#"
   xmlns:dc="http://purl.org/dc/elements/1.1/">
  <defs
     id="defs2" />
  <metadata
     id="metadata5">
    <rdf:RDF>
      <cc:Work
         rdf:about="">
        <dc:format>image/svg+xml</dc:format>
        <dc:type
           rdf:resource="http://purl.org/dc/dcmitype/StillImage" />
      </cc:Work>
    </rdf:RDF>
  </metadata>
  <g
     id="layer1"
     transform="translate(227.14872,129.66905)">
    <path
       id="path2750"
       style="fill:none;stroke:#000000;stroke-width:4.23333;stroke-linecap:butt;stroke-linejoin:miter;stroke-miterlimit:4;stroke-dasharray:none;stroke-dashoffset:0;stroke-opacity:1"
       d="m -11.976332,399.51794 -6.813021,-0.1323 -3.108854,-1.12447 -2.248958,-2.77813 -0.926042,-4.7625 -2.645833,-11.64167 -7.474479,-21.69583 -17.21439,-45.98837 -14.03165,-35.54684 -9.167344,-25.44406 -10.851142,-39.10152 -8.418991,-39.10153 -8.231904,-50.51395 -6.73519,-42.28204 -10.28987,-33.48887 -16.55735,-36.388746 -16.37026,-28.273764 -23.0119,-40.200668 -11.97368,-19.831396 -4.37497,-7.974407 -0.39687,-4.365625 1.71979,-3.40651 2.91042,-1.719792 4.29947,-0.264583 7.50756,0.892969 38.13307,5.721614 23.28333,5.291667 26.987499,7.805208 27.516664,9.657292 45.905207,21.431249 44.979166,22.092709 62.706255,29.2364549 37.041669,14.2875001 46.0375,15.081249 41.77342,12.096901 6.361,3.040192 3.92886,5.472343 1.49672,5.706205 -0.0936,5.752976 -2.24504,5.799748 -6.5949,5.846522 -16.74442,13.470382 -13.93812,8.32544 -17.21215,5.98684 -23.47963,4.67722 -21.84259,-0.98222 -15.70334,-2.82901 L 93.658568,101.2664 45.239818,79.173698 13.489813,65.150781 3.5017926,62.901823 l -10.9140623,0.79375 -8.6651043,2.050521 -9.525,4.960937 -6.548437,5.688542 -6.614583,9.19427 -4.233334,10.054164 -1.521354,10.252603 1.918229,14.81667 14.156274,51.78082 4.568691,19.16386 2.666013,9.68182 3.133735,6.12716 4.864304,6.73519 6.3142442,6.12716 9.3076606,5.00462 10.8979152,2.666 10.149559,-0.0935 11.786587,-2.05798 10.38343,-6.40779 10.757587,-8.79316 10.102797,-7.29647 13.376831,-6.17392 12.72204,-3.83532 12.628485,-1.77734 16.18316,-0.65482 11.97366,1.40317 27.96977,6.54812 186.44994,46.20657 32.6099,8.00364 9.45885,4.29948 8.40052,8.06979 4.69635,7.34219 3.24115,10.84792 0.66146,9.12812 0.59531,36.11563 1.45521,39.48906 -0.79375,7.60677 -2.11667,5.22552 -4.63021,2.97656 -14.86685,5.23854 -28.81167,5.98683 -23.57316,2.80633 -102.93296,1.07518 z" />
  </g>
</svg>
